<svg width="44" height="44" fill="none" xmlns="http://www.w3.org/2000/svg"><path fill-rule="evenodd" clip-rule="evenodd" d="M22 44c12.15 0 22-9.85 22-22S34.15 0 22 0 0 9.85 0 22s9.85 22 22 22z" fill="#000"/><path d="M22.03 14.521c.84 0 1.905-.588 2.533-1.368.567-.709.983-1.702.983-2.695 0-.132-.01-.273-.041-.375-.942.04-2.067.649-2.746 1.47-.537.628-1.023 1.6-1.023 2.603 0 .142.02.294.04.345.072.01.163.02.254.02zM19.06 29.333c1.155 0 1.662-.8 3.1-.8 1.46 0 1.784.77 3.06.77 1.257 0 2.098-1.196 2.898-2.37.892-1.348 1.256-2.665 1.287-2.726-.081-.02-2.493-1.044-2.493-3.89 0-2.473 1.905-3.587 2.006-3.668-1.256-1.865-3.17-1.905-3.688-1.905-1.408 0-2.563.881-3.292.881-.78 0-1.814-.83-3.04-.83-2.33 0-4.69 1.985-4.69 5.724 0 2.32.88 4.782 1.955 6.373.932 1.337 1.732 2.441 2.897 2.441z" fill="#fff"/></svg>